<svg width="203" height="6" viewBox="0 0 203 6" fill="none" xmlns="http://www.w3.org/2000/svg">
<path d="M52.9571 5.96833C52.9571 5.9509 52.9081 5.93997 52.8484 5.94406C52.7886 5.94814 52.6651 5.93175 52.5739 5.90763C52.4777 5.88219 52.3294 5.86379 52.2206 5.86379C52.0723 5.86379 52.0604 5.86014 52.1635 5.84641C52.2637 5.83307 52.2604 5.82779 52.1492 5.82366C52.0353 5.81942 52.0403 5.81345 52.1725 5.79567C52.3006 5.77844 52.3073 5.77183 52.2006 5.76786C52.1235 5.76499 52.0605 5.75721 52.0605 5.75056C52.0605 5.74392 52.1103 5.74188 52.1713 5.74604C52.2348 5.75038 52.2536 5.74541 52.2153 5.73439C52.1786 5.72382 52.2062 5.71517 52.2766 5.71517C52.3699 5.71517 52.372 5.70845 52.2846 5.6904C52.1883 5.6705 52.1994 5.66563 52.3411 5.66563C52.4837 5.66563 52.4907 5.66244 52.3772 5.64903C52.2321 5.63186 51.9503 5.64721 51.9871 5.67027C51.9966 5.67623 51.9454 5.68352 51.8732 5.68646C51.7868 5.68998 51.7641 5.68243 51.8068 5.6644C51.8424 5.64932 51.8259 5.63995 51.7699 5.64357C51.714 5.64718 51.5673 5.64605 51.4441 5.64104C51.2663 5.63381 51.3185 5.63006 51.6962 5.62292C51.9932 5.6173 52.1725 5.60733 52.1725 5.59642C52.1725 5.58681 52.2705 5.57894 52.3903 5.57894C52.5101 5.57894 52.6771 5.56805 52.7614 5.55475C52.9126 5.5309 53.4834 5.49835 53.6685 5.50303C53.7208 5.50436 54.0486 5.49749 54.397 5.48777C54.7453 5.47806 55.3457 5.46618 55.731 5.46138C56.1164 5.45658 56.4598 5.44763 56.4941 5.44148C56.5285 5.43534 56.6671 5.43019 56.8021 5.43004C56.9372 5.42988 57.3503 5.41329 57.7201 5.39316C58.09 5.37303 58.4778 5.35644 58.5821 5.35629C58.6863 5.35613 58.8028 5.35044 58.8409 5.34362C58.879 5.33681 58.8532 5.33124 58.7836 5.33124C58.6283 5.33124 58.6843 5.27585 58.8409 5.27465C58.9025 5.27417 59.174 5.26679 59.4443 5.25824C59.7145 5.24969 60.0587 5.24611 60.2091 5.25028C60.3596 5.25445 60.6428 5.25241 60.8385 5.24574C61.0342 5.23906 61.4758 5.22752 61.8198 5.22008C62.7637 5.19967 63.2677 5.18262 63.2677 5.1711C63.2677 5.15916 57.5185 5.16749 56.0951 5.18149C55.3451 5.18887 55.059 5.18685 54.7502 5.17201C54.5345 5.16165 54.3327 5.15236 54.3019 5.15137C54.2711 5.15039 54.0985 5.14286 53.9183 5.13463C53.7382 5.12641 53.5113 5.12311 53.414 5.12729C53.3168 5.13148 51.8251 5.1369 50.0992 5.13935C48.3733 5.14179 46.7342 5.14934 46.4568 5.15613C46.1794 5.16291 45.3482 5.17493 44.6096 5.18284C43.871 5.19075 43.1702 5.20292 43.0523 5.2099C42.9343 5.21687 42.5915 5.21996 42.2905 5.21677C41.9894 5.21357 41.7159 5.21582 41.6826 5.22176C41.6494 5.2277 41.5753 5.22936 41.5179 5.22544C41.4605 5.22152 41.4136 5.22421 41.4136 5.23143C41.4136 5.23864 41.3757 5.24344 41.3295 5.24209C41.1431 5.23664 40.1808 5.25917 40.1808 5.26899C40.1808 5.28107 39.3342 5.30117 39.0141 5.29668C38.8963 5.29503 38.7052 5.30491 38.5894 5.31865C38.4736 5.33239 38.2926 5.34428 38.1871 5.34509C38.0816 5.34589 37.6927 5.34775 37.3229 5.34922C36.9531 5.35069 36.4487 5.35833 36.2022 5.36619C35.9556 5.37405 35.5634 5.38362 35.3305 5.38745C35.0976 5.39128 34.9345 5.39931 34.9679 5.40528C35.0722 5.42393 34.8232 5.42882 32.876 5.44632C32.7726 5.44725 32.6969 5.45329 32.7079 5.45974C32.7189 5.46619 32.6271 5.47475 32.5038 5.47876C32.3805 5.48277 32.1523 5.49562 31.9967 5.50732C31.7931 5.52262 31.3687 5.53083 30.4837 5.53656C29.8072 5.54094 29.1371 5.54394 28.9946 5.54323C28.8521 5.54252 28.5807 5.55078 28.3914 5.5616C28.1959 5.57277 28.0173 5.57636 27.978 5.56991C27.8815 5.55407 27.487 5.53885 27.5734 5.55431C27.6645 5.5706 27.5554 5.56976 27.257 5.55189C26.6548 5.51581 23.8035 5.54323 23.5061 5.58796C23.414 5.60181 23.4039 5.61115 23.4781 5.61388C23.5418 5.61623 23.594 5.62309 23.594 5.62912C23.594 5.63515 23.5235 5.63709 23.4372 5.63343C23.351 5.62978 23.2472 5.63274 23.2065 5.64002C23.0978 5.65945 23.7695 5.65663 24.1319 5.63613C24.2984 5.62672 24.6615 5.61492 24.9389 5.6099C25.2163 5.60489 25.5315 5.59898 25.6393 5.59676C25.7472 5.59455 25.8355 5.60004 25.8355 5.60897C25.8355 5.62044 25.9748 5.62398 26.3118 5.62107C26.68 5.61788 26.743 5.61983 26.5896 5.62966C26.4804 5.63666 26.4164 5.64689 26.4472 5.65241C26.5137 5.6643 25.8871 5.67627 24.674 5.68626C23.9929 5.69187 23.7706 5.68965 23.6951 5.67648C23.6243 5.66412 23.597 5.66369 23.5957 5.67492C23.5932 5.69772 22.9196 5.69404 22.6782 5.6699C22.5655 5.65863 22.4733 5.65468 22.4733 5.66112C22.4733 5.66823 22.1095 5.66949 21.5487 5.66433C21.0402 5.65964 20.2458 5.65274 19.7835 5.64899C19.3212 5.64524 18.7773 5.63569 18.5749 5.62777C18.3724 5.61985 18.0812 5.61602 17.9278 5.61926C17.7743 5.6225 17.617 5.61946 17.5781 5.61252C17.5347 5.60475 17.564 5.60374 17.6542 5.6099C17.7454 5.61613 17.7737 5.61506 17.7289 5.60705C17.6445 5.59196 17.11 5.57829 16.4774 5.57504C16.1042 5.57313 16.0271 5.56828 16.0169 5.54613C16.0061 5.52235 16.0834 5.51852 16.7454 5.51004C17.1528 5.50482 17.6121 5.50175 17.7662 5.50323L18.0464 5.50591L17.7491 5.48805C17.2334 5.45707 16.7306 5.444 15.7489 5.43606C15.225 5.43181 14.4685 5.41924 14.0678 5.40812C13.1463 5.38253 9.94878 5.38057 9.80933 5.40551C9.76134 5.41409 9.66275 5.41706 9.59024 5.4121C9.403 5.39932 7.34058 5.39501 7.41073 5.40755C7.47635 5.41929 7.45965 5.41949 5.99356 5.4244C4.9588 5.42787 4.52203 5.43211 2.97265 5.45367C2.26617 5.4635 1.85311 5.45787 1.44933 5.4329C1.28023 5.42244 1.31668 5.41649 1.72391 5.38808C2.05238 5.36517 2.45367 5.35169 3.05937 5.34323C4.09305 5.32879 5.0793 5.3106 5.78986 5.29287C6.21489 5.28226 6.29966 5.27571 6.25513 5.25689C6.22316 5.24338 6.13581 5.23663 6.04361 5.24054C5.95722 5.2442 5.88654 5.24103 5.88654 5.23349C5.88654 5.22595 5.9748 5.21969 6.08267 5.21959C6.25028 5.21943 6.25435 5.21765 6.11069 5.20739C6.00437 5.1998 5.99277 5.19532 6.07915 5.1952C6.15448 5.19508 6.18669 5.18665 6.15098 5.17636C6.10592 5.16339 6.21774 5.15126 6.51873 5.13648L6.95123 5.11524L5.85621 5.10777C5.25395 5.10366 4.45964 5.10087 4.09107 5.10156C3.7225 5.10225 3.42094 5.10212 3.42094 5.10126C3.42094 5.10041 3.52181 5.08686 3.64509 5.07116C3.76837 5.05545 3.86923 5.04637 3.86923 5.05097C3.86923 5.05558 3.9828 5.05113 4.12161 5.04107C4.26041 5.03102 4.74786 5.01639 5.20482 5.00855C5.66177 5.00072 6.23539 4.98652 6.47951 4.977C6.72364 4.96748 7.10616 4.9595 7.32956 4.95925C7.9537 4.95858 9.52588 4.9134 9.07127 4.90921C9.01477 4.90869 8.86767 4.90569 8.74439 4.90256C8.62111 4.89943 8.45867 4.89537 8.3834 4.89355C8.12699 4.88733 8.11061 4.87528 8.34731 4.86698C8.47722 4.86242 8.71533 4.84519 8.87644 4.82869C9.03756 4.81219 9.28192 4.79869 9.41947 4.79869C9.55702 4.79869 9.7271 4.79103 9.79742 4.78167C9.9025 4.76768 9.81009 4.76319 9.2788 4.7565C8.92324 4.75203 8.48102 4.74567 8.2961 4.74237C7.85616 4.73452 6.10556 4.73565 5.98532 4.74387C5.82311 4.75495 4.54167 4.76017 4.54167 4.74975C4.54167 4.74428 4.61732 4.73286 4.70978 4.72438C4.80224 4.7159 4.87789 4.70315 4.87789 4.69603C4.87789 4.68892 4.8447 4.68677 4.80414 4.69125C4.76358 4.69573 4.66272 4.69319 4.58 4.6856C4.49672 4.67797 4.4296 4.67709 4.4296 4.68365C4.4296 4.69016 4.35395 4.69548 4.26149 4.69548C3.99233 4.69548 4.06616 4.68222 4.43603 4.66413C4.85198 4.64378 4.79242 4.63525 4.12185 4.61911C3.51014 4.60439 3.39353 4.58132 3.83211 4.56178C4.28599 4.54157 6.41844 4.51533 7.63746 4.51496C8.20885 4.51478 8.81013 4.51093 8.97365 4.5064L9.27096 4.49815L8.95164 4.46929C8.77602 4.45341 8.54704 4.44022 8.44281 4.43998C8.17716 4.43935 8.09641 4.41965 8.23891 4.39023C8.38937 4.35916 9.36424 4.3033 9.75593 4.3033C9.92108 4.3033 10.0166 4.29795 9.97719 4.29091C9.9391 4.2841 9.81543 4.27853 9.70238 4.27853C9.51251 4.27853 9.3014 4.24761 9.343 4.22589C9.38529 4.20382 7.60712 4.22851 7.45831 4.25206C7.34466 4.27005 4.48282 4.31706 4.20148 4.30556L3.93357 4.29461L4.19418 4.27919C4.33752 4.27072 5.26865 4.24879 6.26338 4.23046C8.0836 4.19693 8.5266 4.17326 7.33386 4.17326C6.96737 4.17326 6.63021 4.16618 6.52061 4.15619C6.36492 4.142 6.14938 4.14161 5.24139 4.15387C3.57182 4.1764 2.60152 4.19187 2.37397 4.1996C2.22321 4.20472 2.17787 4.20105 2.20586 4.18599C2.24665 4.16404 2.59338 4.13829 3.13696 4.11684C3.60485 4.09837 3.31401 4.08209 2.71577 4.09326C2.45639 4.0981 2.01723 4.10599 1.73985 4.11079L1.23553 4.11951L1.6558 4.07501C1.88695 4.05053 2.07607 4.02851 2.07607 4.02607C2.07607 4.02364 1.76334 4.01774 1.38111 4.01296C0.477366 4.00166 -0.00620049 3.97366 6.00304e-05 3.933C0.00334863 3.91156 0.728378 3.88279 1.403 3.87733C1.68073 3.87508 2.31142 3.86439 2.80454 3.85357C3.29766 3.84275 4.05422 3.83139 4.48577 3.82832C4.91733 3.82526 5.57295 3.81688 5.94271 3.8097C8.23915 3.76514 8.75601 3.75417 8.85499 3.7479C8.91582 3.74405 8.7393 3.73481 8.46273 3.72736C8.18442 3.71987 7.95988 3.70657 7.95988 3.69757C7.95988 3.67673 9.08946 3.63146 10.1146 3.61121C10.6133 3.60136 10.9823 3.58671 11.1031 3.57196C11.2112 3.55876 11.5864 3.5421 11.9576 3.53403C12.7997 3.51572 12.777 3.49836 11.8619 3.46099C11.6658 3.45298 11.528 3.43998 11.5558 3.43211C11.619 3.41417 12.1384 3.38682 12.4157 3.38682C12.5303 3.38682 12.593 3.38125 12.5549 3.37444C12.5168 3.36762 12.1103 3.36205 11.6517 3.36205C10.896 3.36205 10.5925 3.34939 10.9578 3.3331C11.2842 3.31854 9.64867 3.32642 8.84083 3.3433C7.83482 3.36431 7.28745 3.35552 7.28745 3.31834C7.28745 3.3012 7.58019 3.27869 8.38751 3.23377C9.14802 3.19145 9.44206 3.1693 9.34013 3.16203C9.14651 3.14821 9.33761 3.13409 10.0893 3.10665C11.1502 3.06793 11.9919 3.00301 11.8814 2.96844C11.8059 2.94482 12.2195 2.93194 13.9279 2.90469C14.7771 2.89114 15.6276 2.87148 15.8178 2.86099C16.0081 2.8505 16.4108 2.83865 16.7128 2.83465C17.5456 2.82362 19.139 2.77907 19.3882 2.75985C19.5098 2.75048 19.762 2.74242 19.9486 2.74194C20.1352 2.74146 20.3887 2.73628 20.512 2.73042C20.6905 2.72195 20.6448 2.71941 20.2879 2.71796C19.3326 2.71407 18.8257 2.70366 18.6991 2.68533C18.6126 2.67282 18.4775 2.66898 18.3068 2.67416C18.0827 2.68096 18.0741 2.68015 18.2446 2.66835C18.3536 2.66081 18.5301 2.65622 18.6368 2.65816C18.7436 2.6601 18.8988 2.65699 18.9817 2.65125C19.0709 2.64507 19.2454 2.64748 19.4089 2.65716C19.6243 2.6699 19.7321 2.67027 19.8973 2.65887C20.0315 2.64961 20.1343 2.64869 20.1772 2.65637C20.2145 2.66304 20.5321 2.6687 20.8829 2.66894C21.2337 2.66918 21.6468 2.67734 21.8008 2.68708C22.1366 2.70829 22.2491 2.70984 22.2491 2.69327C22.2491 2.68646 22.1705 2.68089 22.0744 2.68089C21.9783 2.68089 21.9273 2.67595 21.9611 2.66991C21.9949 2.66387 21.9169 2.65588 21.7878 2.65215C21.6587 2.64842 21.575 2.63803 21.6018 2.62907C21.6512 2.61253 22.1532 2.60283 23.7061 2.58844C25.109 2.57543 25.4992 2.56844 25.4992 2.55628C25.4992 2.54988 25.4236 2.54465 25.3311 2.54465C25.2377 2.54465 25.163 2.53364 25.163 2.51988C25.163 2.50172 25.2377 2.49511 25.4432 2.49511C25.7656 2.49511 25.8206 2.47604 25.523 2.46744C25.4127 2.46426 24.8454 2.46463 24.2622 2.46826C22.5635 2.47886 21.8841 2.47533 21.5287 2.45408C21.3482 2.44329 21.1682 2.43666 21.1287 2.43936C21.0892 2.44206 21.0777 2.42858 21.1032 2.4094C21.1588 2.36756 21.0011 2.36103 19.8504 2.35754C19.1617 2.35544 19.1083 2.35356 19.3476 2.33985C19.7414 2.3173 21.1857 2.28494 22.0471 2.27937C22.4873 2.27652 22.9031 2.26635 23.0526 2.25477C23.371 2.23013 23.5629 2.22982 23.7781 2.25361C23.875 2.26431 24.1448 2.27207 24.4145 2.27192C25.2452 2.27144 28.3444 2.23661 28.7651 2.22302C29.1581 2.21033 29.17 2.20828 29.0871 2.16766C29.0349 2.14207 29.0466 2.12044 29.117 2.11266C29.1969 2.10383 29.1935 2.09459 29.1059 2.08293C28.8382 2.04728 29.1788 2.0399 30.8143 2.0459C32.0851 2.05057 32.4816 2.04802 32.7394 2.03348C33.0122 2.01811 34.2423 1.9969 35.0815 1.99311C35.2047 1.99255 35.5578 1.98711 35.866 1.98102L36.4263 1.96995L35.922 1.96094C35.6446 1.95598 34.8125 1.95477 34.0728 1.95825C33.3331 1.96172 32.274 1.96382 31.7193 1.96291C31.1645 1.96201 30.0802 1.97034 29.3097 1.98144C27.7852 2.00339 26.2129 2.01875 25.5361 2.0183C25.3001 2.01814 25.0753 2.02288 25.0366 2.02883C24.9979 2.03478 24.8088 2.04035 24.6163 2.04122C24.4239 2.04209 24.2665 2.04742 24.2665 2.05306C24.2665 2.0587 24.153 2.05978 24.0143 2.05547C23.8169 2.04934 23.7986 2.05046 23.9302 2.06064C24.0752 2.07185 24.0713 2.07367 23.9022 2.07384C23.7944 2.07395 23.7061 2.08024 23.7061 2.08784C23.7061 2.09632 23.5995 2.09393 23.4299 2.08164C23.1231 2.05943 22.9885 2.05594 23.0818 2.07262C23.1156 2.07866 23.0429 2.08649 22.9203 2.09004C22.7928 2.09372 22.6974 2.09035 22.6974 2.08216C22.6974 2.07386 22.5204 2.06783 22.2771 2.06783C22.01 2.06783 21.8665 2.07326 21.8831 2.08272C21.9012 2.09297 21.7804 2.09579 21.4957 2.09176C21.0292 2.08516 20.5689 2.0563 20.5663 2.03349C20.5651 2.02374 20.5257 2.02495 20.456 2.03687C20.3717 2.05129 20.347 2.04764 20.3456 2.02058C20.3434 1.97591 20.5281 1.93779 20.7467 1.93779C20.8406 1.93779 20.8863 1.93222 20.8482 1.92541C20.8101 1.9186 20.8702 1.9126 20.9817 1.91208C21.351 1.91035 21.5856 1.90285 21.8353 1.88477C22.0592 1.86855 22.5854 1.87479 22.5854 1.89366C22.5854 1.89707 22.5178 1.897 22.4352 1.89348C22.3526 1.88998 22.2139 1.8968 22.127 1.90863C21.9908 1.92718 21.991 1.92869 22.1282 1.91955C22.2506 1.9114 22.2691 1.91419 22.2085 1.93166C22.1613 1.94525 22.1874 1.95843 22.2735 1.96447C22.4879 1.9795 22.6684 1.97667 22.4734 1.96133C22.3469 1.95139 22.4119 1.94975 22.7357 1.95474C22.9738 1.9584 23.2577 1.95504 23.3711 1.94722C23.5262 1.93651 23.6158 1.93674 23.7401 1.94813C23.8724 1.96027 23.921 1.95893 23.9911 1.94119C24.0389 1.9291 24.07 1.91502 24.0602 1.90992C24.0504 1.90481 24.1139 1.90063 24.2012 1.90063C24.2885 1.90063 24.3792 1.89425 24.4027 1.88646C24.4262 1.87867 24.5934 1.87055 24.7742 1.86842C24.955 1.86629 25.1593 1.85603 25.2282 1.84563C25.2971 1.83522 25.3943 1.8308 25.4443 1.8358C25.4942 1.8408 25.5034 1.83514 25.4647 1.82322C25.3781 1.79654 25.5924 1.79405 25.6849 1.82066C25.7436 1.83757 25.7754 1.83735 25.9615 1.81874C26.1602 1.79887 26.1719 1.79901 26.1735 1.8213C26.1749 1.84107 26.1929 1.84188 26.2839 1.82632C26.4458 1.79862 26.4227 1.79259 26.1228 1.78427C25.9325 1.77899 25.855 1.76878 25.8674 1.75062C25.8871 1.72169 26.2775 1.70007 26.7273 1.70299C27.1466 1.70571 27.5167 1.68977 27.5167 1.669C27.5167 1.65562 27.6281 1.6517 27.937 1.65419C28.3886 1.65783 29.1486 1.64389 29.4219 1.62695C29.5577 1.61853 29.5469 1.61634 29.3659 1.61556C29.2426 1.61504 28.8896 1.61199 28.5814 1.6088C27.6284 1.59892 26.3607 1.59923 25.9034 1.60945C25.5895 1.61647 25.4889 1.61529 25.545 1.60525C25.5932 1.59663 25.5629 1.59384 25.4657 1.59796C25.3736 1.60187 25.2248 1.59054 25.1065 1.57059C24.9621 1.54624 24.9431 1.53512 25.0398 1.53156C25.1306 1.52822 25.1087 1.52083 24.973 1.50906C24.7888 1.4931 24.8007 1.49212 25.1071 1.498C25.292 1.50156 25.3803 1.50118 25.3033 1.49716C25.0194 1.48237 25.1757 1.46716 25.6114 1.46716C25.8944 1.46716 26.0603 1.47287 26.0614 1.48264C26.0626 1.49403 26.0886 1.49368 26.1595 1.48132C26.22 1.47076 26.282 1.4692 26.3263 1.47712C26.4016 1.49057 26.5442 1.48952 26.8945 1.47295C27.0146 1.46727 27.2787 1.46225 27.4813 1.46179C27.9458 1.46075 28.0966 1.43 27.6372 1.43C27.4555 1.43 27.2885 1.42195 27.252 1.41143C27.2085 1.39889 27.2574 1.39285 27.4025 1.39285C27.5208 1.39285 27.6579 1.38588 27.7072 1.37737C27.8357 1.35517 28.2925 1.32887 28.41 1.3369C28.4649 1.34065 28.5415 1.33805 28.5802 1.33113C28.6189 1.3242 28.7898 1.31854 28.9599 1.31854C29.13 1.31854 29.5431 1.30949 29.8779 1.29843C30.4063 1.28097 30.4538 1.27696 30.2379 1.26801C30.1011 1.26234 29.1654 1.25846 28.1584 1.25938C27.1514 1.26031 26.2616 1.25656 26.1811 1.25106C26.0977 1.24536 26.0016 1.24696 25.958 1.25477C25.8679 1.27087 22.384 1.28308 22.2974 1.26759C22.267 1.26215 22.1638 1.26102 22.0681 1.26507C21.9504 1.27007 21.9349 1.27522 22.0201 1.28104C22.0893 1.28577 21.9927 1.28964 21.8054 1.28964C21.618 1.28964 21.4647 1.28432 21.4647 1.2778C21.4647 1.27129 21.3879 1.27302 21.2939 1.28163C21.2 1.29025 21.0872 1.29334 21.0434 1.28849C20.9996 1.28365 21.0891 1.26915 21.2423 1.25626L21.5208 1.23283L21.2406 1.23879C20.9951 1.244 20.9881 1.24328 21.1846 1.23297C21.5078 1.216 22.039 1.21776 22.3503 1.23683C22.6538 1.25541 23.0338 1.24929 23.0338 1.22581C23.0338 1.215 23.255 1.21014 23.7622 1.20982C24.2193 1.20954 24.4907 1.21444 24.4907 1.22297C24.4907 1.23046 24.5537 1.22745 24.6308 1.21629C24.732 1.20163 25.0354 1.19378 25.7235 1.18804C26.2474 1.18367 26.9944 1.17223 27.3835 1.16262C27.7726 1.15302 28.2517 1.14462 28.4482 1.14396C28.6447 1.14331 29.0577 1.13516 29.3659 1.12586C29.8913 1.11001 29.832 1.10937 28.4132 1.11571C27.5811 1.11942 26.8246 1.12256 26.7321 1.12267C26.6397 1.12278 25.4797 1.13594 24.1545 1.1519C22.8292 1.16787 21.3844 1.18264 20.9437 1.18472C20.5031 1.1868 20.1657 1.19268 20.1939 1.19779C20.2221 1.2029 20.0278 1.2071 19.7622 1.20712C19.4966 1.20712 18.8254 1.21525 18.2707 1.22512C17.3194 1.24204 15.0816 1.25949 15.3855 1.24761C15.4629 1.24459 15.4978 1.23702 15.4629 1.23079C15.4281 1.22456 15.5412 1.21919 15.7144 1.21887C15.8875 1.21855 16.2057 1.2077 16.4215 1.19477C16.6372 1.18185 16.9146 1.16607 17.0379 1.15972C17.4431 1.13884 24.053 1.018 25.6114 1.00298C26.0737 0.998527 27.4102 0.983841 28.5813 0.97035C29.7525 0.956857 31.2983 0.94041 32.0164 0.933801C32.7346 0.927189 33.5648 0.913711 33.8614 0.903848C34.251 0.890891 34.4221 0.889748 34.4779 0.899731C34.5487 0.912389 35.7278 0.908923 37.1549 0.891864C37.3706 0.889284 38.0515 0.883692 38.6679 0.879437C39.7739 0.871801 41.459 0.84611 42.4022 0.822506C42.6686 0.81584 42.9337 0.81361 42.9914 0.81755C43.0491 0.821491 43.83 0.812434 44.7266 0.797424C46.0533 0.775214 46.4046 0.772956 46.6133 0.785301C46.8232 0.797711 47.092 0.795629 48.0923 0.773844C49.7575 0.73758 51.9304 0.690436 53.0132 0.667077C53.5063 0.656439 54.2227 0.639831 54.6052 0.630171C54.9877 0.62051 55.4668 0.612633 55.6699 0.612666C55.873 0.612666 56.2661 0.604701 56.5435 0.594891C57.0109 0.578359 57.968 0.560006 60.522 0.518601C61.8341 0.497331 62.0984 0.492421 63.4359 0.464482C64.0523 0.451606 65.061 0.431873 65.6774 0.42063C66.2938 0.409388 66.9494 0.397425 67.1343 0.394047C68.4429 0.370148 68.6921 0.370592 68.9524 0.39729C69.0928 0.411695 69.2077 0.429808 69.2077 0.437541C69.2077 0.445274 69.2455 0.450941 69.2917 0.450135C69.338 0.449336 69.491 0.449336 69.6319 0.450135C69.8461 0.451359 69.8696 0.45539 69.7759 0.474742C69.6387 0.503072 69.7485 0.518353 69.9538 0.499517C70.1849 0.478324 70.1323 0.497386 69.8665 0.531175C69.727 0.5489 69.4469 0.564791 69.1892 0.569603C68.8128 0.576629 68.7699 0.580502 68.8904 0.596547C69.0713 0.620629 68.9184 0.622123 76.1001 0.526096C76.5933 0.519502 77.4758 0.511435 78.0614 0.508168C78.647 0.504902 79.7061 0.496363 80.4149 0.489192C81.1238 0.482023 82.0568 0.473949 82.4883 0.47125C82.9198 0.468553 83.4722 0.460571 83.716 0.453513C83.9597 0.446457 84.9267 0.440339 85.8649 0.439921C86.803 0.439504 87.6375 0.436676 87.7192 0.43364C87.9208 0.426149 90.5471 0.410945 91.172 0.413652C91.4483 0.414852 91.7515 0.423539 91.8458 0.432966C92.057 0.454089 92.5949 0.456206 95.0965 0.445764C96.2464 0.440962 97.3024 0.430046 97.6491 0.419375C98.1016 0.405451 98.8521 0.401639 100.843 0.403153C102.275 0.404247 104.656 0.400925 106.136 0.395786C109.134 0.385371 108.973 0.385253 112.075 0.400134C114.084 0.409769 115.243 0.410169 117.007 0.401837C117.315 0.400381 117.479 0.39664 117.371 0.393525C117.263 0.390411 117.175 0.382036 117.175 0.374916C117.175 0.366375 117.489 0.364425 118.099 0.369184C118.608 0.373153 120.133 0.382047 121.49 0.38895C122.846 0.395854 124.586 0.407219 125.356 0.414207C128.452 0.442281 129.632 0.452175 131.24 0.463517C135.261 0.491884 137.38 0.503187 139.589 0.508043C140.606 0.510279 141.867 0.515906 142.391 0.520546C142.915 0.525187 143.697 0.528484 144.128 0.527873C144.56 0.527272 145.417 0.532243 146.033 0.538943C146.65 0.545643 148.646 0.553579 150.47 0.556579C152.293 0.559579 154.008 0.567466 154.28 0.574105C154.552 0.580744 155.171 0.589195 155.656 0.592884C156.14 0.596573 156.695 0.602459 156.888 0.605963C157.551 0.617945 158.586 0.626091 160.099 0.631241C161.431 0.635774 162.725 0.646657 164.638 0.6694C164.946 0.673064 165.374 0.677618 165.59 0.679519C165.806 0.681421 166.361 0.686552 166.823 0.690925C167.285 0.695297 168.067 0.702284 168.56 0.706452C169.053 0.710617 169.482 0.715744 169.513 0.717843C169.543 0.719942 169.856 0.725024 170.206 0.729144C170.557 0.733262 170.917 0.739764 171.008 0.743593C171.098 0.747422 171.618 0.752214 172.163 0.754243C173.661 0.759816 173.659 0.759782 173.659 0.7798C173.659 0.790017 173.713 0.798376 173.778 0.798376C173.843 0.798376 173.86 0.791857 173.816 0.783888C173.76 0.774008 173.797 0.772038 173.93 0.777695C174.038 0.782259 174.237 0.785993 174.373 0.785993C174.54 0.785993 174.626 0.794044 174.637 0.810762C174.657 0.840369 174.597 0.841789 174.372 0.816954C174.137 0.791031 173.875 0.792974 173.954 0.820051C173.992 0.833387 173.98 0.8364 173.922 0.827883C173.858 0.818451 173.542 0.81668 172.931 0.822324C171.879 0.832039 171.085 0.829365 169.625 0.81119C169.039 0.803902 168.283 0.794944 167.944 0.79128C167.605 0.787618 167.268 0.782496 167.196 0.779895C167.124 0.777297 167.036 0.783623 167 0.793952C166.952 0.807863 166.846 0.810562 166.59 0.804358C166.189 0.794614 165.931 0.790909 164.862 0.779539C164.43 0.77495 164.047 0.769145 164.01 0.766639C163.932 0.761302 162.433 0.760424 160.379 0.764515C159.076 0.767109 158.157 0.76002 157.471 0.742082C157.085 0.731975 154.383 0.727602 154.383 0.737086C154.383 0.741963 154.723 0.749978 155.139 0.7549C155.555 0.759822 155.997 0.766047 156.12 0.768734C156.985 0.787583 159.301 0.808707 161.163 0.814736C161.595 0.816134 162.001 0.821049 162.066 0.82566C162.175 0.833329 165.606 0.862901 165.791 0.857754C165.834 0.856527 166.249 0.859423 166.711 0.86419C167.426 0.871556 169.251 0.88638 169.709 0.888539C169.874 0.889318 169.894 0.905305 169.742 0.915684C169.633 0.923132 168.788 0.924852 168.024 0.919181C167.79 0.917449 167.558 0.908697 167.508 0.899732C167.44 0.887604 167.248 0.885579 166.756 0.891823C166.392 0.896438 166.061 0.902431 166.019 0.905141C165.978 0.907852 165.868 0.901615 165.774 0.891282C165.681 0.880951 165.578 0.877268 165.545 0.883102C165.482 0.894421 163.22 0.8896 162.564 0.87675C162.348 0.872521 161.968 0.867912 161.719 0.866508C161.47 0.865103 161.155 0.857362 161.019 0.849307C160.821 0.837596 160.771 0.837975 160.771 0.851198C160.771 0.860931 160.621 0.86907 160.407 0.870983C159.521 0.878885 158.28 0.878135 157.297 0.869105C156.589 0.862611 156.287 0.863422 156.397 0.871529C156.839 0.904217 156.01 0.920338 154.719 0.904163C153.575 0.889823 153.37 0.889068 152.876 0.897362C152.62 0.901641 152.263 0.900728 152.08 0.895332C151.601 0.881121 149.106 0.855953 147.995 0.854116C147.471 0.85325 146.714 0.84873 146.314 0.844073C145.913 0.839417 145.106 0.832746 144.52 0.82925C143.935 0.825753 142.548 0.814699 141.438 0.804684C140.329 0.794669 138.679 0.782729 137.771 0.778153C136.292 0.770695 136.114 0.771971 136.049 0.790457C135.988 0.808038 135.794 0.811003 134.73 0.810555C134.043 0.81027 133.254 0.814547 132.977 0.820073L132.473 0.83012L133.313 0.843929C133.776 0.851525 134.33 0.857587 134.546 0.8574C134.762 0.857198 135.644 0.86569 136.507 0.876238C137.37 0.886786 139.009 0.901639 140.15 0.909244C141.29 0.916848 142.335 0.925737 142.472 0.928998C142.609 0.932259 143.744 0.940352 144.994 0.946982C147.24 0.958901 148.814 0.968626 150.012 0.977994C150.351 0.980645 151.514 0.988457 152.596 0.995357C153.679 1.00226 154.637 1.01038 154.726 1.01341C154.815 1.01645 154.988 1.02314 155.111 1.0283C155.235 1.03345 155.529 1.03921 155.766 1.0411C156.003 1.04299 156.256 1.05338 156.327 1.06418C156.43 1.07977 156.722 1.08447 157.745 1.08702C158.454 1.08878 159.084 1.09365 159.146 1.09783C159.208 1.10202 159.636 1.10872 160.099 1.11271C162.309 1.13182 164.518 1.14734 165.534 1.1509C166.15 1.15306 167.462 1.16455 168.448 1.17645C169.434 1.18834 170.695 1.19993 171.25 1.20219C175.089 1.21783 178.156 1.23754 179.767 1.25692C180.322 1.26359 181.294 1.27264 181.928 1.27702C182.562 1.2814 183.107 1.28975 183.14 1.29557C183.172 1.30139 183.032 1.30661 182.828 1.30716C182.624 1.30772 182.315 1.30931 182.141 1.31071C181.967 1.3121 181.802 1.30933 181.776 1.30454C181.749 1.29974 181.54 1.30151 181.313 1.30846C181.082 1.31551 180.574 1.31748 180.165 1.31292C179.761 1.30842 177.616 1.30256 175.396 1.29989C173.177 1.29723 170.53 1.29145 169.513 1.28705C167.7 1.27921 167.186 1.284 168.375 1.29766C168.705 1.30145 169 1.30725 169.029 1.31055C169.109 1.31938 168.699 1.34123 168.36 1.34626C167.963 1.35212 167.838 1.36781 168.177 1.36916C168.326 1.36975 169.104 1.37543 169.905 1.38177C170.706 1.38812 172.282 1.39661 173.407 1.40064C175.256 1.40725 175.453 1.41003 175.453 1.42966C175.453 1.4569 175.904 1.46334 178.623 1.47492C179.719 1.47959 180.643 1.48812 180.675 1.49386C180.707 1.49961 180.954 1.50432 181.224 1.50432C182.145 1.50432 181.887 1.53851 180.756 1.56638C180.437 1.57424 180.008 1.57965 179.803 1.57839C178.438 1.57003 178.796 1.59442 180.328 1.61411C180.944 1.62203 181.801 1.63122 182.233 1.63452C182.664 1.63782 183.446 1.64607 183.97 1.65286C184.494 1.65965 185.553 1.66888 186.324 1.67337C187.272 1.6789 187.761 1.68678 187.837 1.69777C187.899 1.70676 188.299 1.71759 188.733 1.72206C189.165 1.7265 189.568 1.73693 189.63 1.74525C189.691 1.75356 190.11 1.76413 190.56 1.76872C191.01 1.77332 191.492 1.78526 191.63 1.79527C191.788 1.80673 192.273 1.81547 192.941 1.81891C194.381 1.82631 195.509 1.84027 195.572 1.85145C195.637 1.8632 194.656 1.87999 194.505 1.86969C194.443 1.86547 194.393 1.8673 194.393 1.87375C194.393 1.88021 194.569 1.88915 194.785 1.89362C195.211 1.90245 195.292 1.91786 194.981 1.93115C194.615 1.94684 195.127 1.97169 196.28 1.99411C197.247 2.01294 197.859 2.03621 197.413 2.03724C196.994 2.03821 197.641 2.06004 198.314 2.06766C198.714 2.07217 199.1 2.08125 199.171 2.08782C199.243 2.09439 199.621 2.10544 200.01 2.11238C201.094 2.13166 201.082 2.14715 199.977 2.15674C199.564 2.16033 199.187 2.17095 199.073 2.18218C198.914 2.19794 198.719 2.19982 198.008 2.19249C196.563 2.17757 196.277 2.18047 196.06 2.21225C195.954 2.2278 195.889 2.24442 195.916 2.24918C195.942 2.25395 196.304 2.26175 196.719 2.26652C197.135 2.27128 197.525 2.27956 197.587 2.2849C197.649 2.29025 197.939 2.29857 198.231 2.30338C199.035 2.3166 198.87 2.3341 197.942 2.3341C197.49 2.3341 197.082 2.33828 197.035 2.34339C196.988 2.3485 196.518 2.35268 195.99 2.35268C195.323 2.35268 195.016 2.35739 194.983 2.36816C194.95 2.37877 195.07 2.38366 195.364 2.38371C195.6 2.38373 195.97 2.38889 196.186 2.39514C196.402 2.40139 197.005 2.41002 197.527 2.41433C198.049 2.41864 198.532 2.42738 198.602 2.43376C198.671 2.44013 198.758 2.4421 198.794 2.43813C198.829 2.43416 198.976 2.43555 199.119 2.44121C199.321 2.44915 199.201 2.45329 198.596 2.45938C197.881 2.46657 197.066 2.48465 196.634 2.50287C196.361 2.51443 196.786 2.52714 198.063 2.54554C198.695 2.55464 199.212 2.56539 199.212 2.56943C199.212 2.57347 199.54 2.57447 199.94 2.57165C200.526 2.56753 200.669 2.57008 200.669 2.58463C200.669 2.60708 200.314 2.64379 200.1 2.64353C199.968 2.64337 199.969 2.64127 200.108 2.63134C200.251 2.62112 200.247 2.6193 200.077 2.61914C199.967 2.61903 199.847 2.6276 199.81 2.63817C199.754 2.65455 199.551 2.65643 198.441 2.65091C197.05 2.644 196.708 2.6522 196.965 2.68631C197.394 2.74346 199.144 2.80472 200.347 2.80472C201.074 2.80472 201.453 2.81975 201.453 2.84851C201.453 2.8629 201.274 2.86659 200.585 2.86635C200.107 2.8662 199.514 2.86019 199.268 2.85301C199.021 2.84584 197.86 2.83744 196.686 2.83436C194.611 2.8289 194.553 2.82943 194.536 2.85365C194.52 2.87746 194.657 2.89462 194.897 2.89892C194.959 2.90002 195.442 2.90994 195.971 2.92096C197.704 2.95703 199.242 2.979 200.816 2.99017C202.274 3.00051 202.772 3.01469 202.621 3.04164C202.587 3.04779 202.51 3.04953 202.451 3.04551C202.393 3.04149 202.358 3.04558 202.375 3.0546C202.392 3.06367 202.319 3.07024 202.211 3.0693C202.104 3.06837 202.04 3.07194 202.07 3.07723C202.1 3.08253 201.953 3.09041 201.743 3.09475C201.291 3.10412 201.184 3.12645 201.415 3.16299C201.539 3.18247 201.552 3.19408 201.464 3.20581C201.32 3.22503 201.414 3.23819 201.696 3.23819C201.809 3.23819 201.902 3.24052 201.902 3.24337C201.902 3.24622 201.935 3.25819 201.976 3.26998C202.044 3.28966 201.969 3.29073 201.051 3.28319C200.502 3.27867 199.863 3.27166 199.632 3.26761C199.298 3.26176 199.212 3.2642 199.212 3.27957C199.212 3.29019 199.131 3.30391 199.031 3.31006C198.775 3.32592 198.929 3.39728 199.25 3.41163C199.48 3.42188 199.481 3.42247 199.268 3.42405C199.044 3.42571 199.044 3.42571 199.268 3.43635C199.487 3.44673 199.181 3.45117 198.035 3.45426C197.557 3.45555 197.195 3.47222 197.195 3.49292C197.195 3.50397 197.078 3.51072 196.886 3.51083C196.717 3.51094 196.463 3.51439 196.323 3.51854C196.084 3.52562 196.081 3.52712 196.267 3.54275C196.377 3.55191 196.604 3.55959 196.773 3.5598C196.941 3.56003 197.412 3.5797 197.819 3.60355C198.229 3.62759 198.721 3.64689 198.925 3.64689C199.604 3.64689 200.663 3.66266 200.611 3.67199C200.582 3.67708 200.645 3.68049 200.75 3.67955C200.855 3.67862 200.958 3.68746 200.98 3.6992C201.031 3.72645 200.37 3.77343 200.028 3.76679C199.892 3.76413 199.762 3.76804 199.739 3.77547C199.686 3.79299 198.378 3.79794 197.855 3.7826C197.633 3.77609 196.486 3.76925 195.306 3.7674C193.31 3.76428 192.722 3.7706 193.468 3.78715C193.638 3.79091 194.003 3.79966 194.281 3.80659C194.558 3.81353 194.999 3.81944 195.261 3.81974C195.523 3.82004 195.738 3.82585 195.738 3.83267C195.738 3.83948 195.817 3.84505 195.913 3.84505C196.01 3.84505 196.192 3.85117 196.319 3.85866C196.546 3.87212 196.546 3.87242 196.283 3.88689C195.823 3.91222 195.966 3.93611 196.739 3.96326C197.135 3.97719 197.483 3.9967 197.512 4.00661C197.541 4.01652 197.609 4.02786 197.663 4.03181C197.835 4.04424 197.63 4.08245 197.436 4.07423C197.338 4.07007 197.288 4.07009 197.326 4.07427C197.364 4.07845 197.268 4.09592 197.112 4.11309C196.908 4.13567 196.697 4.14487 196.35 4.14636C196.086 4.14748 195.891 4.15205 195.916 4.15651C195.941 4.16096 195.479 4.16188 194.889 4.15854C194.031 4.15369 193.778 4.15623 193.628 4.17124C193.419 4.19209 192.319 4.20068 191.745 4.18595C191.525 4.18032 191.365 4.18206 191.318 4.19058C191.276 4.19808 191.122 4.20422 190.977 4.20422C190.64 4.20422 190.358 4.2161 190.358 4.23031C190.358 4.23639 190.431 4.24137 190.521 4.24137C190.61 4.24137 190.726 4.24982 190.778 4.26015C190.837 4.2718 191.275 4.28757 191.933 4.3017C193.227 4.32954 194.181 4.3721 194.09 4.39806C194.056 4.40803 193.956 4.41314 193.868 4.40942C193.78 4.4057 193.737 4.4077 193.771 4.41385C193.806 4.42001 193.702 4.44241 193.54 4.46363C193.324 4.49204 193.187 4.50013 193.021 4.49432C192.896 4.48994 192.824 4.49144 192.859 4.49769C192.893 4.5039 192.746 4.50952 192.532 4.51019C192.318 4.51086 191.788 4.521 191.356 4.53272L190.569 4.55402L190.819 4.58347C190.957 4.59966 191.116 4.61292 191.173 4.61292C191.23 4.61292 191.45 4.62199 191.661 4.63309C192.03 4.65243 192.039 4.65443 191.876 4.68198C191.768 4.70008 191.747 4.71355 191.818 4.7184C191.88 4.72263 191.898 4.73187 191.859 4.73894C191.813 4.74723 191.752 4.74583 191.689 4.73499C191.625 4.72409 191.561 4.72262 191.507 4.73082C191.461 4.73777 191.271 4.75152 191.087 4.76138L190.75 4.7793L191.105 4.78351C191.489 4.78806 191.694 4.81985 191.416 4.83165C191.322 4.83564 191.217 4.83582 191.183 4.83206C191.149 4.82829 190.953 4.83563 190.748 4.84837C190.543 4.8611 190.183 4.8755 189.949 4.88035C189.715 4.88521 189.455 4.89669 189.372 4.90586C189.176 4.92759 189.099 4.92711 188.057 4.89768C187.123 4.87126 186.859 4.87372 186.476 4.91245C186.26 4.9343 186.172 4.93538 185.587 4.92342C184.819 4.90772 183.372 4.90571 183.454 4.92045C183.486 4.92612 183.879 4.93769 184.329 4.94616C185.475 4.96775 185.604 4.97238 185.416 4.98523C185.089 5.0075 186.55 5.06008 187.977 5.07745C188.362 5.08214 188.702 5.09035 188.732 5.09569C188.762 5.10103 188.68 5.12026 188.551 5.13842C188.334 5.16892 188.33 5.17312 188.496 5.19348C188.596 5.20561 188.677 5.21858 188.677 5.2223C188.677 5.23761 186.779 5.21559 186.155 5.19304C185.258 5.16062 183.442 5.13696 183.274 5.1555C183.185 5.16532 183.184 5.17374 183.271 5.1853C183.388 5.2009 183.568 5.20758 185.063 5.25183C185.529 5.26564 185.763 5.27882 185.763 5.29123C185.763 5.30692 185.631 5.30856 184.932 5.30156C184.399 5.29622 184.074 5.29783 184.028 5.30604C183.989 5.31309 184.018 5.31885 184.094 5.31885C184.17 5.31885 184.205 5.32174 184.173 5.32526C184.098 5.33356 182.511 5.29675 182.353 5.28305C182.229 5.27227 180.593 5.24442 180.243 5.24714C180.136 5.24798 180.047 5.25565 180.047 5.26417C180.047 5.2727 180.021 5.28718 179.989 5.29636C179.934 5.31223 181.303 5.34429 183.661 5.3824C184.016 5.38812 184.488 5.40125 184.712 5.41156C184.935 5.42188 185.276 5.43035 185.469 5.43038C185.976 5.4305 186.705 5.45501 186.587 5.46803C186.533 5.47406 185.85 5.48058 185.071 5.48252C184.291 5.48446 183.662 5.48699 183.672 5.48815C183.682 5.4893 183.94 5.50107 184.244 5.51429C184.775 5.53731 184.787 5.53896 184.545 5.5533C184.355 5.56452 184.152 5.56495 183.733 5.55502C183.051 5.53885 182.961 5.53864 182.961 5.55318C182.961 5.55945 183.112 5.56824 183.296 5.57271C183.909 5.58758 183.776 5.6037 183.041 5.6037C182.613 5.6037 182.181 5.61156 181.971 5.62314C181.758 5.63486 181.52 5.63913 181.37 5.63388C181.05 5.62267 175.788 5.61839 175.85 5.6294C175.98 5.65271 174.51 5.65259 173.255 5.62917C170.715 5.58178 168.553 5.55484 167.159 5.55319C166.389 5.55228 165.229 5.54388 164.581 5.53452C163.934 5.52516 162.781 5.51175 162.019 5.50473C161.257 5.49771 160.601 5.48982 160.562 5.4872C160.523 5.48458 160.112 5.47888 159.65 5.47453C159.188 5.47018 158.633 5.46426 158.417 5.46138C157.968 5.45538 155.923 5.44278 154.439 5.43687C153.365 5.43259 151.733 5.4212 150.628 5.41027C150.258 5.40661 148.821 5.40124 147.434 5.39833C146.047 5.39543 144.408 5.38848 143.792 5.3829C143.175 5.37732 141.471 5.3733 140.004 5.37398C137.785 5.37501 137.318 5.37829 137.23 5.39347C137.14 5.40896 137.108 5.4091 137.023 5.39444C136.956 5.38293 136.812 5.37961 136.591 5.38448C136.408 5.38852 136.205 5.38572 136.137 5.37825C136.07 5.37079 135.848 5.36352 135.644 5.36208C135.441 5.36064 135.173 5.35617 135.05 5.35213C134.379 5.33015 133.679 5.32376 133.397 5.33703C133.171 5.34769 132.606 5.3351 132.684 5.32115C132.713 5.31601 132.172 5.3103 131.484 5.30847C129.629 5.30354 129.436 5.30129 129.226 5.28203C129.056 5.26638 129.039 5.2671 129.072 5.28854C129.098 5.30488 129.056 5.31123 128.942 5.30824C128.85 5.30582 128.661 5.30373 128.522 5.3036C128.383 5.30346 128.27 5.29907 128.27 5.29384C128.27 5.28861 128.189 5.28089 128.089 5.27667C127.958 5.27111 127.927 5.27432 127.976 5.28838C128.022 5.30172 128 5.30471 127.904 5.29799C127.828 5.29263 127.286 5.28649 126.701 5.28435C125.469 5.27986 125.652 5.27991 119.864 5.28217C117.43 5.28312 115.126 5.27987 114.745 5.27495C114.363 5.27003 113.967 5.2696 113.863 5.274C113.672 5.28208 110.011 5.29805 108.886 5.2957C108.007 5.29387 107.009 5.35102 107.564 5.37146C107.647 5.3745 107.59 5.38327 107.424 5.39292C107.27 5.40189 107.116 5.41394 107.082 5.41969C106.958 5.44047 106.007 5.45206 105.736 5.43608C105.566 5.42601 105.115 5.42239 104.405 5.42541C103.815 5.42792 101.875 5.43292 100.095 5.43651C98.3156 5.44011 96.7368 5.44644 96.5871 5.45059C96.4374 5.45475 95.8012 5.459 95.1733 5.46004C94.5454 5.46108 93.9308 5.4682 93.8075 5.47585C93.5869 5.48955 92.5475 5.51204 92.3735 5.50688C92.1591 5.50052 91.761 5.50212 91.3979 5.5108C91.1822 5.51596 90.9048 5.51924 90.7815 5.5181C90.6582 5.51696 90.4565 5.51504 90.3332 5.51384C90.21 5.51264 89.63 5.5182 89.0444 5.5262C88.4588 5.5342 87.7617 5.54063 87.4952 5.54049C87.2287 5.54035 86.9513 5.54551 86.8788 5.55195C86.8063 5.55839 86.583 5.56754 86.3827 5.57228C86.0845 5.57932 86.0184 5.57708 86.0184 5.55992C86.0184 5.54136 85.9257 5.53996 85.2059 5.54773C84.759 5.55255 83.5864 5.55778 82.6002 5.55935C81.614 5.56092 80.5354 5.56875 80.2034 5.57675C79.8714 5.58475 79.5752 5.5913 79.5452 5.5913C79.5153 5.5913 79.5535 5.59966 79.6303 5.60988C79.707 5.62009 79.9401 5.62845 80.1483 5.62845C80.3565 5.62845 80.5269 5.63078 80.5269 5.63363C80.5269 5.63648 80.5575 5.64763 80.5949 5.6584C80.6882 5.68527 80.3726 5.68395 80.1236 5.65643C79.9825 5.64084 79.9156 5.63914 79.8819 5.65031C79.8563 5.65881 79.7892 5.66261 79.7328 5.65876C79.6764 5.65491 79.6303 5.65627 79.6303 5.66178C79.6303 5.66729 79.5168 5.67249 79.3781 5.67332C79.2394 5.67415 78.4704 5.68115 77.669 5.68886C76.8677 5.69656 75.2539 5.7051 74.0827 5.70783C72.9115 5.71056 71.8272 5.71585 71.6731 5.71958C71.151 5.73224 68.2803 5.76158 66.742 5.76999C63.8915 5.78557 61.7304 5.83062 61.2848 5.88376C61.1454 5.90038 60.8998 5.9138 60.7234 5.91443C59.2731 5.91964 57.2591 5.93633 56.3752 5.95047C56.0054 5.95638 55.3566 5.96464 54.9335 5.96882C54.5103 5.97299 53.9109 5.98172 53.6013 5.9882C53.2918 5.99469 53.0202 6 52.9978 6C52.9754 6 52.957 5.98574 52.957 5.96831L52.9571 5.96833ZM52.9571 5.85564C52.9571 5.84209 52.9074 5.84108 52.7371 5.85116C52.6057 5.85893 52.5432 5.87169 52.5821 5.88287C52.6321 5.89728 52.6826 5.89831 52.802 5.88736C52.8873 5.87954 52.9571 5.86527 52.9571 5.85564ZM71.8413 5.67144C72.2797 5.65406 72.2687 5.65381 71.337 5.65984C69.2034 5.67367 68.5351 5.68067 68.5351 5.68921C68.5351 5.70537 71.3697 5.69013 71.8413 5.67144ZM19.7836 5.52188C19.7836 5.5192 19.7079 5.51701 19.6154 5.51701C19.523 5.51701 19.4473 5.52241 19.4473 5.52901C19.4473 5.53561 19.523 5.5378 19.6154 5.53388C19.7079 5.52995 19.7836 5.52456 19.7836 5.52188ZM27.9088 5.47986C27.9479 5.47286 27.8561 5.46747 27.6979 5.46747C27.5438 5.46747 27.3865 5.47305 27.3485 5.47986C27.3093 5.48685 27.4011 5.49224 27.5594 5.49224C27.7135 5.49224 27.8707 5.48667 27.9088 5.47986ZM22.5854 5.41649C22.5854 5.40371 22.4512 5.40251 22.2023 5.41307C21.9211 5.42499 21.9965 5.43987 22.3052 5.43335C22.4593 5.43009 22.5854 5.42251 22.5854 5.41649ZM86.0001 5.41447C86.3825 5.4027 86.435 5.39818 86.2466 5.39324C85.9475 5.38541 82.3818 5.40196 80.4709 5.42006C79.9516 5.42497 83.9618 5.43698 84.7857 5.43297C85.1863 5.43102 85.7328 5.4227 86.0001 5.41447ZM89.885 5.37636C90.0083 5.37313 89.7813 5.37095 89.3807 5.37151C88.4244 5.37283 88.0458 5.38421 88.6522 5.3934C88.8987 5.39714 89.2266 5.39615 89.3807 5.39121C89.5348 5.38626 89.7617 5.37958 89.885 5.37636V5.37636ZM18.3638 5.38C18.5946 5.37925 18.5931 5.3786 18.3339 5.36716C18.0284 5.35367 17.7662 5.36039 17.7662 5.38172C17.7662 5.38948 17.8458 5.39244 17.9435 5.3883C18.041 5.38416 18.2301 5.38043 18.3638 5.38ZM91.5686 5.36605C91.5986 5.36274 91.3991 5.3591 91.1253 5.35795C90.8515 5.35681 90.5926 5.3621 90.55 5.36972C90.4956 5.37945 90.6273 5.38186 90.9933 5.37782C91.2797 5.37466 91.5386 5.36937 91.5686 5.36605ZM179.207 5.21978C179.25 5.21211 179.071 5.20795 178.737 5.20886C178.259 5.21016 178.236 5.21138 178.534 5.21978C179.025 5.23357 179.13 5.23357 179.207 5.21978ZM6.46792 5.03793C6.38702 5.03435 6.29036 5.03479 6.25312 5.03891C6.21588 5.04302 6.28207 5.04595 6.40021 5.04541C6.53077 5.04482 6.55733 5.04188 6.46792 5.03793V5.03793ZM7.79178 5.02162C8.01702 5.01365 8.02801 5.01163 7.84782 5.01134C7.72454 5.01114 7.52281 5.01577 7.39953 5.02162C7.11394 5.03518 7.40858 5.03518 7.79178 5.02162ZM9.2956 5.02649C9.3931 5.02235 9.47287 5.00895 9.47287 4.9967C9.47287 4.97773 9.40238 4.97541 8.99656 4.98102C8.48158 4.98813 8.14553 5.00924 8.54726 5.00924C8.67923 5.00924 8.81837 5.01481 8.85647 5.02162C8.9362 5.03588 9.04561 5.03709 9.2956 5.02649ZM191.367 4.81108C191.367 4.80427 191.278 4.79878 191.171 4.79888C191.003 4.79904 190.999 4.80082 191.143 4.81108C191.354 4.82618 191.367 4.82618 191.367 4.81108ZM12.0716 4.30722C11.9906 4.30365 11.894 4.30409 11.8567 4.3082C11.8195 4.31232 11.8857 4.31524 12.0038 4.31471C12.1344 4.31411 12.161 4.31118 12.0716 4.30723V4.30722ZM11.154 4.27109C11.154 4.2509 10.8423 4.24863 10.4328 4.26584C9.98701 4.28457 10.0928 4.29775 10.6496 4.29285C10.988 4.28988 11.154 4.28272 11.154 4.27109ZM13.2357 4.28003C13.1238 4.26002 12.723 4.25491 12.723 4.2735C12.723 4.28393 12.838 4.29092 13.0098 4.29092C13.1675 4.29092 13.2692 4.28601 13.2357 4.28003ZM12.3868 4.26615C12.5118 4.25722 12.4472 4.25409 12.1346 4.25395C11.9034 4.25384 11.7143 4.25933 11.7143 4.26615C11.7143 4.28192 12.1659 4.28192 12.3868 4.26615ZM199.212 2.81712C199.212 2.81031 199.161 2.80474 199.1 2.80474C199.038 2.80474 198.988 2.81031 198.988 2.81712C198.988 2.82393 199.038 2.8295 199.1 2.8295C199.161 2.8295 199.212 2.82393 199.212 2.81712ZM200.024 2.58599C199.947 2.58255 199.821 2.58255 199.744 2.58599C199.667 2.58943 199.73 2.59224 199.884 2.59224C200.038 2.59224 200.101 2.58943 200.024 2.58599ZM198.343 2.43683C198.205 2.43388 197.978 2.43388 197.839 2.43683C197.7 2.43979 197.814 2.4422 198.091 2.4422C198.368 2.4422 198.482 2.43979 198.343 2.43683ZM193.16 2.33685C193.16 2.33155 192.744 2.32061 192.235 2.31253C191.727 2.30445 191.189 2.29398 191.041 2.28925C190.874 2.28392 190.797 2.28531 190.84 2.29292C190.878 2.29966 191.352 2.31227 191.894 2.32093C192.436 2.3296 192.93 2.33846 192.992 2.34061C193.053 2.34278 193.117 2.34498 193.132 2.34552C193.147 2.34605 193.16 2.34216 193.16 2.33685ZM29.702 2.22265C29.9021 2.21314 29.8938 2.21191 29.6245 2.21113C29.4587 2.21065 29.2918 2.21584 29.2537 2.22265C29.171 2.23743 29.3906 2.23743 29.702 2.22265ZM192.375 2.15009C192.375 2.14424 191.869 2.13309 191.251 2.12532C189.857 2.10781 189.607 2.10746 189.75 2.1232C189.809 2.1298 190.412 2.14017 191.089 2.14624C191.766 2.1523 192.332 2.15804 192.347 2.15899C192.363 2.15995 192.375 2.15594 192.375 2.15009V2.15009ZM23.4144 2.00178C23.4461 1.99611 23.3987 1.99146 23.3089 1.99146C23.2192 1.99146 23.1457 1.99611 23.1457 2.00178C23.1457 2.00746 23.1932 2.01211 23.2512 2.01211C23.3092 2.01211 23.3826 2.00746 23.4144 2.00178ZM38.4086 1.97888C38.3277 1.9753 38.2311 1.97574 38.1938 1.97985C38.1566 1.98397 38.2228 1.98689 38.3409 1.98636C38.4715 1.98576 38.498 1.98283 38.4086 1.97887V1.97888ZM21.0163 1.96257C21.0163 1.95575 20.9281 1.95027 20.8202 1.95037C20.6526 1.95053 20.6485 1.9523 20.7922 1.96257C21.0037 1.97767 21.0163 1.97767 21.0163 1.96257ZM21.4646 1.94326C21.4646 1.94025 21.4142 1.9378 21.3526 1.9378C21.2909 1.9378 21.2405 1.9437 21.2405 1.95091C21.2405 1.95813 21.2909 1.96058 21.3526 1.95637C21.4142 1.95216 21.4646 1.94626 21.4646 1.94326ZM27.8528 1.85703C28.0069 1.85227 28.486 1.84372 28.9175 1.83803C29.3489 1.83235 29.8785 1.82181 30.0942 1.81461C30.31 1.80741 30.4865 1.80198 30.4865 1.80255C30.4865 1.8073 31.2542 1.7808 31.6352 1.7629C32.2134 1.73573 32.2499 1.71487 31.7193 1.71487C31.4453 1.71487 31.327 1.70927 31.327 1.69629C31.327 1.67725 31.8286 1.66972 32.6612 1.67626C33.024 1.67912 34.0589 1.65777 34.2958 1.64255C34.4728 1.63118 33.9072 1.61837 33.1695 1.61703C32.6895 1.61615 32.2805 1.62487 31.7753 1.64675C31.3821 1.66378 30.9565 1.6778 30.8295 1.6779C30.6455 1.67806 30.6317 1.68041 30.7613 1.68947C30.8508 1.69573 30.9643 1.6981 31.0135 1.69474C31.0627 1.69138 31.1029 1.69391 31.1029 1.70035C31.1029 1.71144 30.8576 1.71927 30.0016 1.7355C29.7965 1.73939 29.6015 1.75041 29.5682 1.76C29.5187 1.77425 29.4756 1.77454 29.3317 1.76163C29.1843 1.7484 29.1664 1.749 29.2217 1.76535C29.27 1.77962 29.2229 1.78431 29.0465 1.78279C28.9139 1.78166 28.6381 1.78578 28.4335 1.79196C28.1756 1.79975 28.0124 1.79868 27.9012 1.78848C27.8109 1.7802 27.7407 1.77911 27.7407 1.78598C27.7407 1.79964 26.8868 1.83872 26.5882 1.83872C26.4824 1.83872 26.3958 1.84634 26.3958 1.85565C26.3958 1.86826 26.5461 1.8717 26.9842 1.86913C27.3078 1.86723 27.6987 1.86179 27.8528 1.85703V1.85703ZM32.4631 1.40788C32.3822 1.4049 32.2628 1.40835 32.1977 1.41555C32.1145 1.42474 32.1583 1.42635 32.3447 1.42096C32.4962 1.41658 32.547 1.41097 32.4631 1.40788ZM167.831 1.35881C167.831 1.3537 167.678 1.34833 167.491 1.34688C167.296 1.34538 167.18 1.34935 167.218 1.35617C167.296 1.37014 167.832 1.37244 167.831 1.35881ZM32.784 1.28078L33.0642 1.27983L32.8027 1.26825C32.5074 1.25517 31.9995 1.26525 31.9995 1.28419C31.9995 1.29109 32.1122 1.29334 32.2516 1.28921C32.3903 1.2851 32.6299 1.28131 32.784 1.28078ZM166.935 1.28346C166.935 1.27779 166.859 1.27314 166.767 1.27314C166.674 1.27314 166.599 1.27779 166.599 1.28346C166.599 1.28914 166.674 1.29378 166.767 1.29378C166.859 1.29378 166.935 1.28914 166.935 1.28346ZM167.404 1.28532C167.323 1.28175 167.227 1.28219 167.189 1.2863C167.152 1.29042 167.218 1.29334 167.337 1.29281C167.467 1.29221 167.494 1.28928 167.404 1.28532V1.28532ZM34.7102 1.26055C34.6293 1.25698 34.5327 1.25742 34.4954 1.26153C34.4582 1.26565 34.5244 1.26857 34.6425 1.26804C34.7731 1.26744 34.7996 1.26451 34.7102 1.26055V1.26055ZM22.1371 1.24424C22.1371 1.23743 22.0866 1.23186 22.025 1.23186C21.9634 1.23186 21.9129 1.23743 21.9129 1.24424C21.9129 1.25106 21.9634 1.25663 22.025 1.25663C22.0866 1.25663 22.1371 1.25106 22.1371 1.24424ZM25.051 1.21177C25.051 1.19789 24.8405 1.21006 24.7802 1.22742C24.7212 1.24442 24.7376 1.24518 24.8803 1.23209C24.9742 1.22349 25.051 1.21434 25.051 1.21177ZM26.1717 1.21328C26.1717 1.20307 26.1519 1.19471 26.1276 1.19471C26.1034 1.19471 26.0546 1.20307 26.0191 1.21328C25.9836 1.2235 26.0034 1.23186 26.0631 1.23186C26.1228 1.23186 26.1717 1.2235 26.1717 1.21328ZM172.896 0.789932C172.815 0.786353 172.718 0.786794 172.681 0.790907C172.644 0.795022 172.71 0.797951 172.828 0.797412C172.959 0.796819 172.985 0.793883 172.896 0.78993V0.789932ZM69.7071 0.539163C69.7426 0.532822 69.7256 0.524495 69.6694 0.520658C69.6133 0.51682 69.5384 0.522009 69.503 0.532187C69.4333 0.552252 69.6017 0.558008 69.7071 0.539163ZM16.5112 5.8545C16.4467 5.84598 16.4379 5.83885 16.4917 5.83864C16.5455 5.83844 16.4952 5.83221 16.3799 5.82481C16.0842 5.80583 16.3462 5.78955 16.9257 5.7909C17.2284 5.79161 17.3012 5.79456 17.1498 5.8C16.9363 5.80767 16.7771 5.8392 16.9537 5.83885C17.2828 5.83818 17.5204 5.822 17.4692 5.80374C17.4191 5.78591 17.4325 5.78607 17.5733 5.80496C17.7647 5.83063 18.6176 5.83536 18.6913 5.81115C18.7287 5.79886 18.7743 5.79894 18.9127 5.81156C19.1308 5.83145 19.2596 5.87979 19.0743 5.87224C19.0021 5.86929 18.9594 5.85938 18.9793 5.8502C19.0047 5.83854 18.9533 5.83976 18.8082 5.85427C18.6426 5.87083 18.4022 5.8745 17.6146 5.8725C16.9884 5.8709 16.5857 5.86433 16.5112 5.8545L16.5112 5.8545ZM14.9727 5.8272C14.8234 5.817 14.8952 5.78948 15.0711 5.78948C15.199 5.78948 15.3112 5.82445 15.2063 5.83161C15.1599 5.83479 15.0547 5.8328 14.9727 5.8272ZM17.344 5.72755C17.22 5.70562 17.233 5.70257 17.4571 5.7009C17.5963 5.69986 17.7859 5.6981 17.8783 5.69699C18.1773 5.69339 18.2335 5.70471 18.0364 5.72878C17.7873 5.7592 17.5201 5.75872 17.344 5.72755ZM85.234 5.6354C85.234 5.63239 85.2844 5.62649 85.346 5.62228C85.4077 5.61807 85.4581 5.62053 85.4581 5.62774C85.4581 5.63496 85.4077 5.64086 85.346 5.64086C85.2844 5.64086 85.234 5.6384 85.234 5.6354ZM86.549 5.62694C86.625 5.61847 86.7154 5.61467 86.7499 5.61848C86.7844 5.6223 86.7222 5.62922 86.6117 5.63387C86.452 5.64059 86.4391 5.63917 86.549 5.62694ZM26.3958 5.59284C26.3958 5.58686 26.4736 5.57483 26.5687 5.56611C26.7031 5.55379 26.7715 5.55357 26.876 5.56511C26.9804 5.57666 26.9732 5.58257 26.8432 5.59165C26.6318 5.60641 26.3958 5.60704 26.3958 5.59284V5.59284ZM152.926 5.47986C152.926 5.47305 152.999 5.46747 153.087 5.46747C153.176 5.46747 153.28 5.47305 153.318 5.47986C153.356 5.48667 153.284 5.49224 153.157 5.49224C153.03 5.49224 152.926 5.48667 152.926 5.47986ZM151.021 5.4667C151.021 5.4526 151.322 5.45117 151.398 5.4649C151.429 5.4703 151.356 5.47553 151.237 5.47652C151.118 5.47751 151.021 5.47309 151.021 5.4667ZM39.8775 5.44672C39.7767 5.41768 39.9303 5.41341 40.3177 5.43451C40.5198 5.44552 40.6347 5.45536 40.573 5.45639C40.1007 5.46424 39.9301 5.46186 39.8775 5.44672ZM136.787 5.41793C136.787 5.41112 136.81 5.40555 136.837 5.40555C136.864 5.40555 136.917 5.41112 136.955 5.41793C136.994 5.42474 136.971 5.43032 136.906 5.43032C136.841 5.43032 136.787 5.42474 136.787 5.41793ZM135.172 5.40721C135.123 5.39858 135.114 5.38817 135.151 5.38408C135.251 5.373 135.361 5.3893 135.307 5.40726C135.269 5.41985 135.242 5.41984 135.172 5.40719V5.40721ZM135.583 5.40973C135.353 5.3995 135.424 5.38256 135.667 5.38958C135.79 5.39314 135.891 5.40098 135.891 5.40699C135.891 5.4188 135.803 5.41958 135.583 5.40973ZM189.312 5.34775C189.183 5.3335 189.23 5.31885 189.405 5.31885C189.498 5.31885 189.574 5.32721 189.574 5.33743C189.574 5.35677 189.441 5.362 189.312 5.34775ZM50.2256 5.27189C50.1955 5.26649 50.2692 5.26125 50.3896 5.26025C50.5099 5.25925 50.5791 5.26367 50.5433 5.27006C50.4639 5.28426 50.3001 5.2852 50.2256 5.27189ZM51.2359 5.25061C51.2711 5.24046 51.3828 5.23173 51.4841 5.23121C51.5854 5.23068 51.8952 5.22774 52.1725 5.22467C52.5363 5.22065 52.63 5.22259 52.5088 5.23163C52.3701 5.24197 52.3684 5.2442 52.4994 5.24436C52.5867 5.24447 52.6268 5.24802 52.5883 5.25226C52.5499 5.25651 52.2155 5.26202 51.8451 5.26452C51.2842 5.26831 51.1825 5.26598 51.2359 5.25061ZM5.49908 5.22063C5.41619 5.20581 5.62702 5.19113 5.7763 5.20132C5.90164 5.20988 5.81936 5.23216 5.6624 5.23216C5.60804 5.23216 5.53454 5.22697 5.49908 5.22063ZM6.55898 4.8985C6.55898 4.89209 6.60884 4.88344 6.66977 4.87928C6.7333 4.87494 6.75209 4.87991 6.71382 4.89093C6.63931 4.91239 6.55898 4.91632 6.55898 4.8985ZM7.38085 4.89212C7.38085 4.8822 7.4237 4.87702 7.47607 4.88059C7.52844 4.88417 7.54228 4.89228 7.50681 4.89863C7.41619 4.91483 7.38085 4.91301 7.38085 4.89212ZM202.686 3.27536C202.594 3.26875 202.568 3.26335 202.63 3.26335C202.692 3.26335 202.818 3.26875 202.91 3.27536C203.003 3.28196 203.028 3.28736 202.966 3.28736C202.905 3.28736 202.779 3.28196 202.686 3.27536ZM18.5508 2.35624C18.5508 2.35088 18.6516 2.34649 18.7749 2.34649C18.8982 2.34649 18.999 2.35172 18.999 2.35811C18.999 2.3645 18.8982 2.36888 18.7749 2.36786C18.6516 2.36683 18.5508 2.36161 18.5508 2.35624ZM23.244 2.17436L22.9812 2.15084L23.6518 2.141C24.0207 2.13559 24.5872 2.13085 24.9107 2.13046C25.2343 2.13007 25.499 2.12597 25.4991 2.12134C25.4992 2.11169 26.1668 2.1309 26.271 2.14354C26.3088 2.14814 26.1842 2.14863 25.9941 2.14464C25.7812 2.14018 25.5228 2.14473 25.3216 2.15647C25.1419 2.16697 24.7302 2.17609 24.4065 2.17675C24.0829 2.17741 23.8182 2.18244 23.8182 2.18791C23.8182 2.20567 23.5135 2.19848 23.244 2.17436V2.17436ZM21.8312 2.17801C21.8685 2.17389 21.9651 2.17345 22.046 2.17703C22.1354 2.18099 22.1089 2.18392 21.9783 2.18451C21.8602 2.18505 21.794 2.18213 21.8312 2.17801V2.17801ZM19.7924 2.00694C19.7875 1.99389 19.814 1.98657 19.8513 1.99069C19.8885 1.9948 19.8925 2.00549 19.8601 2.01443C19.8243 2.02431 19.7978 2.02137 19.7924 2.00694H19.7924ZM22.8532 1.90285C22.8845 1.89725 22.8069 1.88291 22.6808 1.87097C22.4551 1.84962 22.4625 1.84869 23.1448 1.81303C23.9666 1.77008 24.0423 1.76912 24.0423 1.80156C24.0423 1.81682 23.967 1.8264 23.8462 1.82652C23.6872 1.82668 23.6801 1.82881 23.8086 1.8378C23.8958 1.8439 24.0597 1.84692 24.1728 1.84452C24.286 1.84211 24.3785 1.84582 24.3785 1.85276C24.3785 1.8597 24.2146 1.86439 24.0143 1.86318C23.814 1.86197 23.5492 1.86163 23.4259 1.86242C23.2392 1.86363 23.2298 1.86587 23.3699 1.87587C23.5135 1.88613 23.5095 1.88791 23.3419 1.88807C23.234 1.88818 23.1457 1.89383 23.1457 1.90064C23.1457 1.90745 23.0671 1.91303 22.971 1.91303C22.8749 1.91303 22.8219 1.90845 22.8532 1.90285V1.90285ZM24.2862 1.80291C24.1735 1.79522 24.1779 1.79005 24.3072 1.77819C24.4886 1.76156 24.6331 1.77609 24.5083 1.7984C24.4638 1.80636 24.3658 1.80835 24.2862 1.80291ZM20.3999 1.2814C20.3619 1.27459 20.4063 1.26901 20.4988 1.26901C20.5913 1.26901 20.6981 1.27459 20.7362 1.2814C20.7743 1.28821 20.7298 1.29378 20.6373 1.29378C20.5449 1.29378 20.438 1.28821 20.3999 1.2814ZM22.6953 1.22595C22.8567 1.20446 22.9216 1.20222 22.9216 1.21815C22.9216 1.22423 22.8388 1.23272 22.7376 1.23701C22.5838 1.24353 22.5769 1.24172 22.6953 1.22595ZM181.088 1.02609C181.219 1.01157 181.937 1.00019 182.081 1.01033C182.165 1.01616 182.182 1.02158 182.121 1.02236C181.518 1.03 181.037 1.03173 181.088 1.02609ZM180.407 1.01081C180.314 1.00427 180.384 1.00068 180.603 1.00068C180.791 1.00068 180.944 1.00532 180.944 1.011C180.944 1.02418 180.596 1.02405 180.407 1.01079V1.01081ZM177.526 0.994995C177.046 0.983126 175.881 0.974614 173.705 0.967071C172.96 0.964487 172.242 0.955997 172.11 0.948204C171.967 0.939723 171.465 0.935408 170.86 0.937457C170.304 0.939341 169.849 0.939614 169.849 0.93806C169.849 0.933751 170.501 0.897459 170.578 0.897459C170.616 0.897459 170.615 0.903032 170.577 0.909843C170.537 0.917069 170.651 0.922229 170.851 0.922229C171.039 0.922229 171.194 0.916655 171.194 0.909843C171.194 0.903032 171.247 0.897459 171.312 0.897459C171.378 0.897459 171.393 0.904426 171.347 0.91294C171.285 0.924387 171.305 0.925153 171.424 0.915879C171.513 0.90898 171.687 0.903976 171.81 0.904758C171.933 0.905537 172.302 0.907003 172.629 0.908011C172.956 0.909019 173.201 0.914023 173.172 0.919132C173.144 0.924241 173.431 0.927605 173.81 0.926608C174.189 0.925601 174.588 0.929988 174.696 0.936333C174.827 0.944034 174.892 0.943364 174.892 0.934321C174.892 0.926867 174.953 0.924932 175.028 0.930021C175.102 0.93511 175.594 0.940794 176.12 0.942653C176.647 0.94451 177.078 0.946691 177.078 0.947498C177.078 0.948308 177.33 0.950772 177.638 0.95298C177.946 0.955187 178.211 0.958228 178.226 0.959737C178.253 0.962312 178.368 0.966064 178.562 0.970661C178.652 0.97277 178.126 1.00874 178.03 1.00706C177.999 1.00651 177.772 1.00109 177.526 0.994987L177.526 0.994995ZM172.987 0.933074C172.987 0.927114 172.889 0.922237 172.769 0.922237C172.65 0.922237 172.525 0.927114 172.491 0.933074C172.458 0.939035 172.556 0.94391 172.709 0.94391C172.862 0.94391 172.987 0.939035 172.987 0.933074ZM178.982 0.897266C178.943 0.890343 178.864 0.887885 178.807 0.891804C178.749 0.895723 178.703 0.893356 178.703 0.886545C178.703 0.862567 178.883 0.862187 179.017 0.885888C179.092 0.899071 179.13 0.909856 179.102 0.909856C179.075 0.909856 179.02 0.904192 178.982 0.89727V0.897266ZM176.583 0.848961C176.464 0.835905 176.344 0.827808 176.316 0.830966C176.287 0.834126 176.018 0.838577 175.718 0.840861C175.198 0.844817 174.553 0.819303 174.717 0.801239C174.848 0.786779 175.622 0.790164 175.791 0.805933C175.964 0.82208 176.279 0.822616 176.42 0.806997C176.539 0.793855 177.111 0.796737 177.19 0.810878C177.298 0.830127 177.138 0.872691 176.958 0.872691C176.87 0.872691 176.701 0.862009 176.583 0.848954V0.848961ZM177.739 0.8584C177.691 0.849865 177.708 0.84745 177.781 0.852408C177.848 0.856979 177.934 0.855053 177.973 0.84813C178.077 0.829458 178.217 0.832885 178.217 0.85412C178.217 0.875937 177.855 0.879175 177.739 0.8584ZM46.7113 0.766138C46.7486 0.762022 46.8452 0.761581 46.9261 0.765162C47.0155 0.769115 46.989 0.77205 46.8584 0.772645C46.7403 0.773181 46.6741 0.770256 46.7113 0.76614V0.766138ZM69.3197 0.414459C69.3197 0.407648 69.3419 0.402074 69.3691 0.402074C69.3963 0.402074 69.4497 0.407648 69.4878 0.414459C69.5259 0.421271 69.5036 0.426844 69.4383 0.426844C69.3731 0.426844 69.3197 0.421271 69.3197 0.414459ZM71.933 0.415712C71.7521 0.401024 71.7953 0.379916 71.9945 0.385672C72.1216 0.389345 72.2031 0.384292 72.2149 0.372018C72.2251 0.361302 72.242 0.344176 72.2522 0.333958C72.2625 0.32374 72.3634 0.314685 72.4764 0.313833C72.5894 0.312978 72.7197 0.311135 72.7659 0.309728C72.8121 0.308319 73.0012 0.302676 73.1862 0.297183C73.5974 0.28497 73.8207 0.266725 73.7387 0.252054C73.7049 0.246014 73.7769 0.241073 73.8987 0.241073C74.0205 0.241073 74.1457 0.248038 74.1769 0.256554C74.2164 0.26731 74.262 0.267978 74.3264 0.258747C74.4909 0.235132 74.834 0.227762 75.015 0.243957C75.1603 0.256956 75.174 0.256631 75.0945 0.242064C75.0216 0.228706 75.0456 0.226472 75.1942 0.232775C75.3019 0.237339 75.458 0.241072 75.5413 0.241072C75.6246 0.241072 75.7231 0.251646 75.7602 0.26457C75.8036 0.279675 75.8997 0.285987 76.0292 0.282243C76.3153 0.273976 76.2857 0.243354 75.9973 0.249218C75.7694 0.253852 75.7692 0.253682 75.988 0.242196C76.1113 0.235724 76.3828 0.230037 76.5915 0.229558C76.8001 0.229076 77.2792 0.223221 77.6561 0.21654C78.6331 0.199225 81.0891 0.168883 82.208 0.160304C82.7319 0.156288 83.3876 0.150793 83.6649 0.148092C84.2493 0.142403 85.403 0.133346 86.9151 0.122579C87.5006 0.118409 88.3076 0.111927 88.7082 0.108177C89.6712 0.099162 91.187 0.0984896 91.398 0.106988C91.4904 0.110712 91.7804 0.118037 92.0424 0.123269C92.3044 0.128499 92.5187 0.13688 92.5187 0.141892C92.5187 0.146903 92.394 0.164783 92.2416 0.181622C92.0161 0.206549 91.8597 0.212014 91.4006 0.211022C91.0653 0.210288 90.852 0.214887 90.8745 0.222344C90.8953 0.229241 91.3006 0.235343 91.7751 0.235903C92.5204 0.23678 93.0168 0.252804 92.8474 0.270509C92.7717 0.27843 91.2859 0.286258 91.2861 0.278735C91.2862 0.275051 90.9459 0.273781 90.5297 0.275912C90.1134 0.278043 89.4836 0.274725 89.13 0.268525C88.7764 0.262331 88.4631 0.259906 88.4339 0.263139C88.4046 0.266369 88.1644 0.270189 87.9 0.271626C87.6357 0.273064 87.28 0.278545 87.1097 0.283809C86.9256 0.289502 86.7424 0.288091 86.6577 0.280327C86.5794 0.273148 86.0278 0.265986 85.4318 0.264411C84.694 0.262464 84.3712 0.257294 84.4203 0.248215C84.46 0.240884 84.4069 0.242558 84.3022 0.251938C84.1714 0.263668 83.9697 0.266476 83.6561 0.260934C83.3567 0.255643 83.2245 0.25723 83.2711 0.265554C83.3504 0.279743 83.3357 0.280015 82.3201 0.283031C81.9194 0.28422 81.4781 0.289575 81.3394 0.294932C81.2008 0.300288 81.0873 0.300115 81.0873 0.294548C81.0873 0.28898 80.9612 0.284425 80.8071 0.284425C80.653 0.284425 80.5269 0.288604 80.5269 0.293713C80.5269 0.298822 80.4483 0.303002 80.3522 0.303002C80.2561 0.303002 80.2038 0.298295 80.236 0.292539C80.3138 0.278631 79.1625 0.299057 79.0789 0.313067C78.9259 0.338716 76.8285 0.364708 76.8285 0.340955C76.8285 0.333706 76.7751 0.327771 76.7098 0.327771C76.6446 0.327771 76.6202 0.33296 76.6556 0.339301C76.757 0.357429 76.4992 0.368589 76.3324 0.353293C76.2205 0.343031 76.1679 0.343659 76.1259 0.355754C76.0896 0.366197 75.9052 0.370967 75.6085 0.369133C75.3549 0.367568 75.1474 0.371491 75.1474 0.377853C75.1474 0.398334 74.5716 0.384884 74.4598 0.361791C74.4003 0.349511 74.3029 0.342791 74.2434 0.346858C74.1838 0.350925 74.1609 0.358857 74.1923 0.364484C74.2238 0.370111 74.1758 0.377843 74.0857 0.381665C73.9956 0.385488 73.8915 0.383198 73.8545 0.376574C73.8134 0.369233 73.6698 0.371756 73.4866 0.383036C73.1419 0.404264 72.0697 0.426818 71.933 0.415718L71.933 0.415712ZM70.3283 0.359459C70.3283 0.337705 70.3956 0.334503 70.4916 0.35168C70.5271 0.358021 70.5048 0.366711 70.4422 0.370988C70.3796 0.375267 70.3283 0.370091 70.3283 0.359459ZM70.7506 0.338066C70.8158 0.330868 70.9352 0.327417 71.0161 0.330395C71.1 0.333487 71.0492 0.339101 70.8977 0.34348C70.7112 0.348867 70.6675 0.347255 70.7506 0.338066ZM109.358 0.306641C109.219 0.303689 109.105 0.29702 109.105 0.291821C109.105 0.276665 109.593 0.284903 109.641 0.300875C109.665 0.308853 109.668 0.314622 109.647 0.313694C109.627 0.312763 109.496 0.309593 109.358 0.306641H109.358ZM107.032 0.278226C107.34 0.263597 107.517 0.263597 107.312 0.278226C107.22 0.28483 107.069 0.289927 106.976 0.289551C106.865 0.289103 106.884 0.285245 107.032 0.278226ZM107.711 0.279379C107.676 0.273202 107.749 0.271066 107.872 0.274632C108.134 0.282194 108.167 0.29061 107.935 0.29061C107.846 0.29061 107.746 0.285556 107.711 0.279379ZM93.2832 0.251352C93.1068 0.231758 93.1869 0.230399 94.572 0.229477C95.3844 0.22893 96.1614 0.226092 96.2988 0.223158C96.4362 0.220223 96.5747 0.2225 96.6067 0.228215C96.6387 0.23393 96.8192 0.237426 97.0078 0.235982C97.5177 0.232082 97.5201 0.250112 97.0104 0.255485C96.7694 0.258025 96.5961 0.255815 96.6254 0.250587C96.7174 0.234136 96.5448 0.24024 96.3692 0.259647C96.1785 0.280717 95.7051 0.28451 95.6005 0.265807C95.5544 0.257561 95.4572 0.257752 95.3114 0.266376C95.0632 0.281051 94.8297 0.271079 94.9437 0.250682C94.9936 0.241763 94.966 0.240914 94.8615 0.248159C94.7749 0.254165 94.4267 0.262041 94.0877 0.265661C93.6026 0.27084 93.4312 0.267794 93.2832 0.25135V0.251352ZM102.269 0.265838C102.269 0.259027 102.291 0.253455 102.318 0.253455C102.346 0.253455 102.399 0.259027 102.437 0.265838C102.475 0.27265 102.453 0.278223 102.388 0.278223C102.322 0.278223 102.269 0.27265 102.269 0.265838ZM97.7861 0.241069C97.6851 0.233856 97.6713 0.228987 97.7515 0.228873C97.8249 0.228761 97.9161 0.234257 97.9542 0.241069C98.0402 0.256445 98.0014 0.256445 97.7861 0.241069ZM141.56 0.23938C141.618 0.229011 141.191 0.216815 141.104 0.226372C140.984 0.239687 140.486 0.242203 140.486 0.229494C140.486 0.221634 140.167 0.21974 139.617 0.224337C138.943 0.229974 138.661 0.227069 138.356 0.211382C138.141 0.200263 138.049 0.193721 138.153 0.196844C138.257 0.199967 138.358 0.197676 138.377 0.191761C138.397 0.185844 138.488 0.179191 138.581 0.176977C138.673 0.174765 138.786 0.167379 138.831 0.160567C138.876 0.153755 138.914 0.160387 138.915 0.175314C138.917 0.200961 138.934 0.201472 139.225 0.184653C139.501 0.168692 139.549 0.169087 139.688 0.188483C139.836 0.209049 139.84 0.209046 139.776 0.188483C139.724 0.171757 139.77 0.16681 139.979 0.16681C140.129 0.16681 140.302 0.176564 140.365 0.188483C140.428 0.200511 140.48 0.203267 140.482 0.194676C140.486 0.178458 140.822 0.17233 140.822 0.188483C140.822 0.193592 141.203 0.19745 141.669 0.197057C142.135 0.196662 142.542 0.200842 142.572 0.206345C142.603 0.211847 142.736 0.216349 142.868 0.216349C143.06 0.216349 143.08 0.219445 142.968 0.231829C142.828 0.24733 141.475 0.254633 141.56 0.239431V0.23938ZM143.4 0.239007C143.4 0.23333 143.438 0.228311 143.484 0.227851C143.53 0.227391 143.729 0.224682 143.926 0.221832C144.37 0.21542 144.528 0.236667 144.101 0.245348C143.679 0.25393 143.4 0.251403 143.4 0.239007ZM135.331 0.197723C135.331 0.190912 135.141 0.18534 134.91 0.18534C134.679 0.18534 134.453 0.190912 134.408 0.197723C134.353 0.20598 134.325 0.20598 134.323 0.197723C134.321 0.182208 133.649 0.178537 133.649 0.194041C133.649 0.200277 133.604 0.202248 133.548 0.198422C133.441 0.191133 132.455 0.179428 131.408 0.17302C131.069 0.170945 130.792 0.167996 130.792 0.166465C130.792 0.158165 129.317 0.158036 129.223 0.16633C129.054 0.181134 127.934 0.191462 127.934 0.178209C127.934 0.171913 127.858 0.166763 127.766 0.166763C127.673 0.166763 127.597 0.172141 127.597 0.178715C127.597 0.186176 126.808 0.188463 125.496 0.184805C124.34 0.181582 123.273 0.179004 123.124 0.179075C122.976 0.179187 122.686 0.174066 122.48 0.167789C122.255 0.160925 122.106 0.160882 122.106 0.167676C122.106 0.178931 121.714 0.177108 121.608 0.165358C121.577 0.161969 121.067 0.161177 120.474 0.163599C119.76 0.166519 119.343 0.163107 119.238 0.153479C119.115 0.142166 119.08 0.142713 119.078 0.155952C119.077 0.166691 119.046 0.168186 118.994 0.160011C118.945 0.152247 118.307 0.146458 117.399 0.145533C116.567 0.144689 114.045 0.140801 111.795 0.136906C109.545 0.133012 106.658 0.129082 105.379 0.128175C104.1 0.127278 103.053 0.123039 103.053 0.118777C103.053 0.114512 102.776 0.111025 102.437 0.111025C102.098 0.111025 101.821 0.115205 101.821 0.120313C101.821 0.125422 101.767 0.129602 101.702 0.129602C101.637 0.129602 101.615 0.124029 101.653 0.117217C101.691 0.110406 101.643 0.104833 101.547 0.104833C101.451 0.104838 101.372 0.099265 101.372 0.0924541C101.372 0.0856421 101.319 0.0800687 101.254 0.0800687C101.188 0.0800687 101.166 0.0856421 101.204 0.0924541C101.245 0.0997688 101.122 0.104761 100.903 0.104649C100.622 0.104492 100.573 0.10154 100.7 0.0924541C100.824 0.0835871 100.829 0.0803985 100.72 0.0802583C100.606 0.0801013 100.611 0.075798 100.74 0.0614914C100.832 0.0512741 101.013 0.0429141 101.14 0.0429141C101.268 0.0429141 101.372 0.0369651 101.372 0.0296941C101.372 0.0218525 101.469 0.0198735 101.611 0.02483C101.771 0.0304513 101.824 0.0286986 101.772 0.0194724C101.73 0.0119297 101.725 0.00575949 101.762 0.00575949C101.798 0.00575949 101.866 0.0172214 101.913 0.0312311L101.998 0.0567036L102.294 0.031013C102.497 0.013404 102.614 0.00970272 102.667 0.0192488C102.723 0.0291223 102.773 0.0282856 102.839 0.0163715C102.916 0.00271562 103.685 -0.000346025 106.944 2.97271e-05C109.15 0.000292193 111.862 0.00407067 112.972 0.00844757C114.081 0.0128236 115.922 0.0196354 117.063 0.0235854C121.18 0.0378447 122.241 0.0430271 122.333 0.0493288C122.539 0.0634095 123.443 0.0758999 123.579 0.0665608C123.664 0.0608059 123.762 0.0628607 123.812 0.0714342C123.877 0.0824983 123.927 0.0815465 124.009 0.0676836C124.07 0.0574661 124.121 0.0546794 124.122 0.0614914C124.123 0.0693079 124.816 0.0733238 126.001 0.0723796C127.873 0.0708856 131.072 0.0908778 131.072 0.104075C131.072 0.107901 131.463 0.110403 131.94 0.109639C132.759 0.108327 134.644 0.125276 134.979 0.136952C135.102 0.14126 135.104 0.14589 134.991 0.161001C134.877 0.17623 134.879 0.178702 135.006 0.174273C135.092 0.171281 135.303 0.165416 135.475 0.161242C135.668 0.156564 135.763 0.147848 135.723 0.138534C135.687 0.130219 135.717 0.13214 135.789 0.1428C135.895 0.158478 136.039 0.1604 136.542 0.152853C136.896 0.147546 137.249 0.148533 137.361 0.155141C137.469 0.161534 137.699 0.167522 137.873 0.168449C138.163 0.170002 138.167 0.17058 137.918 0.175766C137.709 0.180123 137.683 0.183901 137.806 0.192467C137.979 0.204587 137.834 0.206105 136.255 0.208631C135.704 0.209508 135.331 0.205101 135.331 0.197725L135.331 0.197723ZM102.758 0.0863318C102.723 0.0761526 102.649 0.0709093 102.593 0.0746785C102.435 0.0854854 102.476 0.104837 102.658 0.104837C102.758 0.104837 102.797 0.0975725 102.758 0.0863318ZM96.2216 0.128668C96.337 0.104851 96.3301 0.102147 96.1715 0.108874C96.0133 0.115584 96.0061 0.112871 96.1201 0.089332L96.2525 0.0619997L96.364 0.0896117C96.4919 0.12129 96.7233 0.125897 96.818 0.098645C96.8534 0.0884274 96.842 0.0800677 96.7926 0.0800677C96.7432 0.0800677 96.7027 0.0716399 96.7027 0.061338C96.7027 0.0461105 96.804 0.0440925 97.2444 0.0505487C97.6145 0.0559728 97.7861 0.0540595 97.7861 0.0445102C97.7861 0.0367442 97.9634 0.030529 98.185 0.030529C98.4465 0.030529 98.5576 0.0352202 98.5077 0.0441495C98.4535 0.0538324 98.4995 0.0537504 98.6666 0.0438647C98.862 0.0323097 98.8907 0.0331477 98.8363 0.0488212C98.8002 0.0591955 98.7257 0.0676843 98.6707 0.0676843C98.6157 0.0676843 98.5706 0.0732575 98.5706 0.0800683C98.5706 0.105885 98.7731 0.0909639 98.9068 0.0552988C99.0627 0.0137048 99.0667 0.0134761 99.3477 0.0300915C99.4894 0.0384734 99.5332 0.0515607 99.4945 0.0739521C99.4641 0.0915053 99.4834 0.104243 99.5373 0.102256C99.5912 0.100271 99.6605 0.104091 99.6913 0.110749C99.7245 0.117909 99.4581 0.123711 99.0392 0.124954C98.3919 0.126874 98.3206 0.124505 98.2087 0.0973696C98.0881 0.0681105 97.674 0.0552796 97.674 0.0807992C97.674 0.0880143 97.7239 0.0905103 97.7848 0.0863492C97.8473 0.0820782 97.8677 0.0868205 97.8316 0.0972207C97.7942 0.107995 97.6939 0.112536 97.5903 0.108144C97.4751 0.103259 97.4408 0.105573 97.4921 0.114756C97.5823 0.130877 97.2098 0.14278 96.7774 0.137596C96.6233 0.135749 96.4052 0.139191 96.2926 0.145245C96.1093 0.155108 96.1019 0.153387 96.2216 0.128668V0.128668ZM99.2875 0.0821324C99.3193 0.0764562 99.274 0.0718121 99.187 0.0718121C99.1 0.0718121 99.0547 0.0764562 99.0865 0.0821324C99.1182 0.0878084 99.1635 0.0924531 99.187 0.0924531C99.2105 0.0924531 99.2558 0.0878084 99.2875 0.0821324ZM94.712 0.131015C94.6782 0.124977 94.7511 0.117135 94.8739 0.113585C95.0227 0.109285 95.0744 0.100543 95.0288 0.0874076C94.9911 0.0765592 95.0077 0.0676833 95.0657 0.0676833C95.2194 0.0676833 95.1946 0.108139 95.0297 0.126364C94.8624 0.144849 94.7949 0.145837 94.712 0.131015ZM95.3992 0.0965812C95.4307 0.0874986 95.471 0.0800677 95.4886 0.0800677C95.5062 0.0800677 95.5465 0.0874986 95.578 0.0965812C95.6095 0.105664 95.5693 0.113095 95.4886 0.113095C95.4079 0.113095 95.3677 0.105664 95.3992 0.0965812ZM95.8314 0.0618847C95.9511 0.0518841 96.1595 0.0435243 96.2945 0.0433074C96.5618 0.04287 96.7322 0.061659 96.5647 0.0730978C96.5073 0.0770159 96.441 0.07382 96.4174 0.0659844C96.3851 0.055285 96.315 0.0552644 96.135 0.0658725C95.7905 0.0862472 95.5739 0.0833761 95.8314 0.0618501V0.0618847ZM94.3422 0.0601999C94.3794 0.0560846 94.4761 0.0556444 94.557 0.059224C94.6464 0.0631771 94.6199 0.0661121 94.4893 0.0667056C94.3711 0.0672418 94.305 0.0643166 94.3422 0.0602013V0.0601999ZM100.252 0.0552971C100.108 0.0450379 100.112 0.0432635 100.28 0.0431013C100.388 0.0429892 100.476 0.0484849 100.476 0.0552971C100.476 0.0704021 100.463 0.0704021 100.252 0.0552971ZM99.6498 0.036434C99.5964 0.021043 99.6251 0.0199828 99.8059 0.0306769C100.066 0.0460414 100.09 0.0552971 99.8714 0.0552971C99.7856 0.0552971 99.6858 0.0468081 99.6498 0.036434Z" fill="url(#paint0_linear_5374_3110)"/>
<defs>
<linearGradient id="paint0_linear_5374_3110" x1="2.83589e-07" y1="3.00001" x2="202.527" y2="-8.40341" gradientUnits="userSpaceOnUse">
<stop stop-color="#8D2CE2"/>
<stop offset="1" stop-color="#4C02E0"/>
</linearGradient>
</defs>
</svg>
