<svg width="34" height="38" viewBox="0 0 34 38" fill="none" xmlns="http://www.w3.org/2000/svg">
<path d="M26.3333 12H7.66667C6.19391 12 5 13.5467 5 15.4545V27.5455C5 29.4533 6.19391 31 7.66667 31H26.3333C27.8061 31 29 29.4533 29 27.5455V15.4545C29 13.5467 27.8061 12 26.3333 12Z" stroke="#775DFA" stroke-width="3.5" stroke-linecap="round" stroke-linejoin="round"/>
<path d="M12 12V7.55556C12 6.08213 12.5795 4.66905 13.6109 3.62718C14.6424 2.58532 16.0413 2 17.5 2C18.9587 2 20.3576 2.58532 21.3891 3.62718C22.4205 4.66905 23 6.08213 23 7.55556V12" stroke="#775DFA" stroke-width="3.5" stroke-linecap="round" stroke-linejoin="round"/>
</svg>
